<svg xmlns="http://www.w3.org/2000/svg" viewBox="0 0 162.28 32"><g data-name="Capa 2"><g data-name="Capa 1"><path d="M13.54 15.28.12 29.34a3.64 3.64 0 0 0 5.33 2.16l15.1-8.6z" style="fill:#ea4335"/><path d="m27.11 12.89-6.53-3.74-7.35 6.45 7.38 7.28 6.48-3.7a3.55 3.55 0 0 0 0-6.29z" style="fill:#fbbc04"/><path d="M.12 2.66a3.46 3.46 0 0 0-.12.92v24.84a3.66 3.66 0 0 0 .12.92L14 15.64Z" style="fill:#4285f4"/><path d="m13.64 16 6.94-6.85L5.5.51A3.72 3.72 0 0 0 3.63 0 3.64 3.64 0 0 0 .12 2.65Z" style="fill:#34a853"/></g></g></svg>