<svg id="Capa_6" data-name="Capa 6" xmlns="http://www.w3.org/2000/svg" viewBox="0 0 245 50"><path d="M776.4,64c6.61,0,10.87,3.7,11.26,9.71h-4.74c-.24-3.46-2.69-5.48-6.56-5.48-4.36,0-7.19,2.21-7.19,5.62,0,2.78,1.58,4.47,4.84,5.23l5.7,1.35c5.65,1.3,8.52,4.37,8.52,9.27,0,6.25-4.83,10.23-12.21,10.23-7,0-11.73-3.7-12-9.65h4.79c.09,3.31,2.87,5.42,7.23,5.42,4.6,0,7.52-2.16,7.52-5.62,0-2.73-1.49-4.46-4.79-5.23l-5.7-1.3c-5.65-1.3-8.57-4.56-8.57-9.56C764.48,68,769.27,64,776.4,64Z" transform="translate(-704 -50)"/><path d="M806,75.21c7,0,12.17,5.09,12.17,12.35S813,99.9,806,99.9s-12.21-5.09-12.21-12.34S799,75.21,806,75.21Zm0,20.66c4.5,0,7.67-3.41,7.67-8.31s-3.17-8.31-7.67-8.31-7.66,3.41-7.66,8.31S801.48,95.87,806,95.87Z" transform="translate(-704 -50)"/><path d="M825.27,99.33V64h4.5V99.33Z" transform="translate(-704 -50)"/><path d="M837.61,67.29a3,3,0,1,1,3,3A3,3,0,0,1,837.61,67.29Zm.77,8.55h4.5V99.33h-4.5Z" transform="translate(-704 -50)"/><path d="M853.5,99.33V79.63h-4.6V75.84h4.6V68.49H858v7.35h4.6v3.79H858v19.7Z" transform="translate(-704 -50)"/><path d="M889.26,75.84V99.33h-4l-.48-3.56c-1.34,2.45-4.45,4.13-7.9,4.13-5.46,0-8.53-3.7-8.53-9.46V75.84h4.51V89c0,5,2.15,7,5.6,7,4.12,0,6.37-2.65,6.37-7.69V75.84Z" transform="translate(-704 -50)"/><path d="M895.76,87.65c0-7.2,4.17-12.49,11.11-12.49a9,9,0,0,1,8.19,4.47V64h4.45V99.33h-4l-.38-4.28c-1.53,3.22-4.7,4.85-8.43,4.85C899.88,99.9,895.76,94.81,895.76,87.65ZM915,87.51c0-4.8-2.82-8.26-7.42-8.26s-7.28,3.46-7.28,8.26,2.68,8.31,7.28,8.31S915,92.41,915,87.51Z" transform="translate(-704 -50)"/><path d="M926.49,87.6c0-7.34,4.65-12.44,11.45-12.44,6.65,0,11,4.62,11,11.58v1.68l-18.1,0c.34,5,2.92,7.69,7.38,7.69,3.49,0,5.79-1.45,6.56-4.14H949c-1.15,5-5.08,7.88-10.87,7.88C931.23,99.9,926.49,94.91,926.49,87.6ZM931,85.44h13.5A6.1,6.1,0,0,0,937.94,79C934,79,931.52,81.31,931,85.44Z" transform="translate(-704 -50)"/><path d="M704,50v50h50V50Zm40,40h-8.79L729,96.21,722.79,90H714V81.21L707.79,75,714,68.79V60h8.79L729,53.79,735.21,60H744v8.79L750.21,75,744,81.21Z" transform="translate(-704 -50)"/></svg>